<?xml version="1.0" standalone="no"?><!DOCTYPE svg PUBLIC "-//W3C//DTD SVG 1.1//EN" "http://www.w3.org/Graphics/SVG/1.1/DTD/svg11.dtd"><svg class="icon" height="512" viewBox="0 0 1031 1024" version="1.1" xmlns="http://www.w3.org/2000/svg"><path d="M977.754839 753.135484 858.83871 753.135484 858.83871 634.219355c0-26.425806-19.819355-46.245161-46.245161-46.245161-26.425806 0-46.245161 19.819355-46.245161 46.245161l0 125.522581L634.219355 759.741935c-26.425806 0-46.245161 19.819355-46.245161 46.245161 0 26.425806 19.819355 46.245161 46.245161 46.245161l125.522581 0 0 125.522581c0 26.425806 19.819355 46.245161 46.245161 46.245161 26.425806 0 46.245161-19.819355 46.245161-46.245161l0-125.522581 125.522581 0c26.425806 0 46.245161-19.819355 46.245161-46.245161C1030.606452 779.56129 1004.180645 753.135484 977.754839 753.135484L977.754839 753.135484zM508.696774 885.264516 508.696774 885.264516 145.341935 885.264516c-26.425806 0-46.245161-19.819355-46.245161-46.245161L99.096774 145.341935c0-26.425806 19.819355-46.245161 46.245161-46.245161l687.070968 0c26.425806 0 46.245161 19.819355 46.245161 46.245161l0 350.141935 0 0c0 0 0 0 0 0 0 26.425806 19.819355 46.245161 46.245161 46.245161 26.425806 0 46.245161-19.819355 46.245161-46.245161 0 0 0 0 0 0l0 0 0-396.387097c0-52.851613-46.245161-99.096774-99.096774-99.096774L99.096774 0C46.245161 0 0 46.245161 0 99.096774l0 786.167742c0 52.851613 46.245161 99.096774 99.096774 99.096774l409.6 0 0 0c26.425806 0 46.245161-19.819355 46.245161-46.245161C554.941935 905.083871 535.122581 885.264516 508.696774 885.264516L508.696774 885.264516zM508.696774 739.922581c19.819355-39.63871 66.064516-66.064516 112.309677-66.064516l52.851613 0L673.858065 614.4c0-52.851613 33.032258-99.096774 79.277419-118.916129l0 0 0 0-66.064516-198.193548L455.845161 594.580645 389.780645 488.877419l-244.43871 251.045161L508.696774 739.922581 508.696774 739.922581zM389.780645 317.109677c0-39.63871-33.032258-72.670968-72.670968-72.670968-39.63871 0-72.670968 33.032258-72.670968 72.670968 0 39.63871 33.032258 72.670968 72.670968 72.670968C356.748387 389.780645 389.780645 356.748387 389.780645 317.109677L389.780645 317.109677zM389.780645 317.109677" /></svg>